<svg width="154" height="42" viewBox="0 0 154 42" fill="none" xmlns="http://www.w3.org/2000/svg">
<path d="M67.6106 27.0294L67.6106 30.0001L58.3049 30.0001L58.3049 27.0294L67.6106 27.0294ZM59.5364 11.5157L59.5364 30.0001L55.7278 30.0001L55.7278 11.5157L59.5364 11.5157ZM73.844 11.5157L73.844 30.0001L70.0481 30.0001L70.0481 11.5157L73.844 11.5157ZM92.4553 11.5157L92.4553 30.0001L88.6467 30.0001L81.22 17.6094L81.22 30.0001L77.4114 30.0001L77.4114 11.5157L81.22 11.5157L88.6594 23.919L88.6594 11.5157L92.4553 11.5157ZM99.5774 11.5157L99.5774 30.0001L95.7688 30.0001L95.7688 11.5157L99.5774 11.5157ZM110.648 11.5157L103.323 20.6436L99.095 25.1885L98.4094 21.5831L101.266 17.6729L105.976 11.5157L110.648 11.5157ZM106.319 30.0001L100.872 21.4561L103.691 19.0948L110.825 30.0001L106.319 30.0001ZM117.605 20.6309L117.605 23.5001L110.432 23.5001L110.432 20.6309L117.605 20.6309ZM129.145 11.5157L129.145 30.0001L125.349 30.0001L125.349 11.5157L129.145 11.5157ZM134.832 11.5157L134.832 14.4991L119.75 14.4991L119.75 11.5157L134.832 11.5157ZM151.831 20.3262L151.831 21.2022C151.831 22.6072 151.641 23.8682 151.26 24.9854C150.879 26.1026 150.342 27.0547 149.648 27.8419C148.954 28.6205 148.124 29.2172 147.159 29.6319C146.203 30.0466 145.141 30.254 143.973 30.254C142.813 30.254 141.751 30.0466 140.786 29.6319C139.83 29.2172 139.001 28.6205 138.298 27.8419C137.596 27.0547 137.05 26.1026 136.66 24.9854C136.28 23.8682 136.089 22.6072 136.089 21.2022L136.089 20.3262C136.089 18.9128 136.28 17.6518 136.66 16.543C137.041 15.4258 137.579 14.4737 138.273 13.6866C138.975 12.8995 139.805 12.2986 140.761 11.8839C141.726 11.4691 142.788 11.2618 143.948 11.2618C145.115 11.2618 146.178 11.4691 147.134 11.8839C148.099 12.2986 148.928 12.8995 149.622 13.6866C150.325 14.4737 150.866 15.4258 151.247 16.543C151.637 17.6518 151.831 18.9128 151.831 20.3262ZM147.985 21.2022L147.985 20.3008C147.985 19.3191 147.896 18.4558 147.718 17.711C147.54 16.9662 147.278 16.3399 146.931 15.8321C146.584 15.3243 146.161 14.9434 145.661 14.6895C145.162 14.4271 144.591 14.296 143.948 14.296C143.304 14.296 142.733 14.4271 142.234 14.6895C141.743 14.9434 141.324 15.3243 140.977 15.8321C140.638 16.3399 140.38 16.9662 140.202 17.711C140.025 18.4558 139.936 19.3191 139.936 20.3008L139.936 21.2022C139.936 22.1755 140.025 23.0388 140.202 23.7921C140.38 24.5368 140.642 25.1674 140.99 25.6837C141.337 26.1915 141.76 26.5766 142.259 26.8389C142.758 27.1013 143.33 27.2325 143.973 27.2325C144.616 27.2325 145.187 27.1013 145.687 26.8389C146.186 26.5766 146.605 26.1915 146.944 25.6837C147.282 25.1674 147.54 24.5368 147.718 23.7921C147.896 23.0388 147.985 22.1755 147.985 21.2022Z" fill="white"/>
<path d="M37.5086 9.70607C33.905 4.44881 27.8554 0.999939 21.0002 0.999939C9.95455 0.999939 1.00024 9.95424 1.00024 20.9999C1.00024 22.6069 1.18978 24.1696 1.54769 25.667L11.7325 15.4822C12.7088 14.5059 14.2917 14.5059 15.268 15.4822L23.5002 23.7144L37.5086 9.70607Z" fill="#EF2A82"/>
<path d="M39.8857 14.4001L25.268 29.0177C24.2917 29.994 22.7088 29.994 21.7325 29.0177L13.5002 20.7855L3.53442 30.7513C6.95574 36.8662 13.4952 40.9999 21.0002 40.9999C32.0459 40.9999 41.0002 32.0456 41.0002 20.9999C41.0002 18.6873 40.6077 16.4663 39.8857 14.4001Z" fill="#EF2A82"/>
</svg>
