<svg width="118" height="32" viewBox="0 0 118 32" fill="none" xmlns="http://www.w3.org/2000/svg">
<path d="M28.3812 7.5296C25.6786 3.58665 21.1414 1 16 1C7.71573 1 1 7.71572 1 16C1 17.2052 1.14215 18.3773 1.41059 19.5003L9.04917 11.8617C9.78141 11.1294 10.9686 11.1294 11.7008 11.8617L17.875 18.0358L28.3812 7.5296Z" fill="#8794BA"/>
<path d="M30.1641 11.0501L19.2008 22.0133C18.4686 22.7456 17.2814 22.7456 16.5492 22.0133L10.375 15.8392L2.90063 23.3135C5.46662 27.8997 10.3713 31 16 31C24.2843 31 31 24.2843 31 16C31 14.2655 30.7056 12.5998 30.1641 11.0501Z" fill="#8794BA"/>
<path d="M50.8926 19.7148L50.8926 22L43.7344 22L43.7344 19.7148L50.8926 19.7148ZM44.6816 7.78125L44.6816 22L41.752 22L41.752 7.78125L44.6816 7.78125ZM55.6875 7.78125L55.6875 22L52.7676 22L52.7676 7.78125L55.6875 7.78125ZM70.0039 7.78125L70.0039 22L67.0742 22L61.3613 12.4688L61.3613 22L58.4316 22L58.4316 7.78125L61.3613 7.78125L67.084 17.3223L67.084 7.78125L70.0039 7.78125ZM75.4824 7.78125L75.4824 22L72.5527 22L72.5527 7.78125L75.4824 7.78125ZM83.998 7.78125L78.3633 14.8027L75.1113 18.2988L74.584 15.5254L76.7812 12.5176L80.4043 7.78125L83.998 7.78125ZM80.668 22L76.4785 15.4277L78.6465 13.6113L84.1348 22L80.668 22ZM89.3496 14.793L89.3496 17L83.832 17L83.832 14.793L89.3496 14.793ZM98.2266 7.78125L98.2266 22L95.3066 22L95.3066 7.78125L98.2266 7.78125ZM102.602 7.78125L102.602 10.0762L91 10.0762L91 7.78125L102.602 7.78125ZM115.678 14.5586L115.678 15.2324C115.678 16.3132 115.531 17.2832 115.238 18.1426C114.945 19.002 114.532 19.7344 113.998 20.3398C113.464 20.9388 112.826 21.3978 112.084 21.7168C111.348 22.0358 110.531 22.1953 109.633 22.1953C108.741 22.1953 107.924 22.0358 107.182 21.7168C106.446 21.3978 105.808 20.9388 105.268 20.3398C104.727 19.7344 104.307 19.002 104.008 18.1426C103.715 17.2832 103.568 16.3132 103.568 15.2324L103.568 14.5586C103.568 13.4714 103.715 12.5013 104.008 11.6484C104.301 10.7891 104.714 10.0566 105.248 9.45117C105.788 8.8457 106.426 8.38346 107.162 8.06445C107.904 7.74544 108.721 7.58594 109.613 7.58594C110.512 7.58594 111.329 7.74544 112.064 8.06445C112.807 8.38346 113.445 8.8457 113.979 9.45117C114.519 10.0566 114.936 10.7891 115.229 11.6484C115.528 12.5013 115.678 13.4714 115.678 14.5586ZM112.719 15.2324L112.719 14.5391C112.719 13.7839 112.65 13.1198 112.514 12.5469C112.377 11.974 112.175 11.4922 111.908 11.1016C111.641 10.7109 111.316 10.418 110.932 10.2227C110.548 10.0208 110.108 9.91992 109.613 9.91992C109.118 9.91992 108.679 10.0208 108.295 10.2227C107.917 10.418 107.595 10.7109 107.328 11.1016C107.068 11.4922 106.869 11.974 106.732 12.5469C106.596 13.1198 106.527 13.7839 106.527 14.5391L106.527 15.2324C106.527 15.9811 106.596 16.6452 106.732 17.2246C106.869 17.7975 107.071 18.2826 107.338 18.6797C107.605 19.0703 107.93 19.3665 108.314 19.5684C108.699 19.7702 109.138 19.8711 109.633 19.8711C110.128 19.8711 110.567 19.7702 110.951 19.5684C111.335 19.3665 111.658 19.0703 111.918 18.6797C112.178 18.2826 112.377 17.7975 112.514 17.2246C112.65 16.6452 112.719 15.9811 112.719 15.2324Z" fill="#8794BA"/>
</svg>
